# Blender 5.1.2
# www.blender.org
mtllib 36_2.mtl
o open_book.001
v -0.347142 0.150560 -0.091293
v 0.347142 0.150560 -0.091293
v 0.347142 0.293038 -0.677308
v -0.328975 0.261366 -0.670497
v 0.347142 0.230881 -0.380662
v -0.344303 0.234643 -0.379598
v -0.173571 0.150560 -0.091293
v -0.000000 0.150560 -0.091293
v 0.173571 0.150560 -0.091293
v 0.173571 0.237291 -0.677308
v -0.000000 0.237291 -0.677308
v -0.170732 0.241053 -0.676244
v 0.173571 0.230881 -0.380662
v -0.000000 0.230881 -0.380662
v -0.173127 0.231469 -0.380496
v -0.347142 0.007143 0.000000
v 0.347142 0.007143 -0.000000
v -0.173571 0.007143 -0.000000
v -0.000000 0.007143 -0.000000
v 0.173571 0.007143 -0.000000
v -0.086781 0.216315 -0.229876
v 0.086785 0.069896 -0.022048
v 0.086785 0.209645 -0.532514
v 0.260356 0.216309 -0.229878
v 0.086785 0.216309 -0.229878
v -0.260210 0.216503 -0.229823
v -0.260356 0.069896 -0.022048
v -0.086785 0.069896 -0.022048
v 0.260356 0.069896 -0.022048
v -0.255526 0.216046 -0.530703
v -0.086639 0.209839 -0.532459
v 0.260356 0.210516 -0.532514
v -0.260356 0.150560 -0.091293
v 0.347142 0.216309 -0.229878
v 0.260356 0.244259 -0.677308
v -0.337774 0.222058 -0.529002
v -0.347142 0.069896 -0.022048
v 0.347142 0.069896 -0.022048
v 0.347142 0.216613 -0.532514
v -0.346858 0.216685 -0.229771
v 0.260356 0.230881 -0.380662
v -0.086785 0.150560 -0.091293
v 0.086785 0.150560 -0.091293
v 0.260356 0.150560 -0.091293
v 0.086785 0.237291 -0.677308
v -0.086502 0.237667 -0.677202
v -0.250989 0.249704 -0.673796
v 0.086785 0.230881 -0.380662
v -0.086741 0.230940 -0.380645
v -0.258893 0.232821 -0.380113
v 0.173571 0.216309 -0.229878
v -0.000000 0.216309 -0.229878
v -0.173527 0.216368 -0.229861
v -0.173571 0.069896 -0.022048
v -0.000000 0.069896 -0.022048
v 0.173571 0.069896 -0.022048
v -0.172107 0.211584 -0.531966
v -0.000000 0.209645 -0.532514
v 0.173571 0.209645 -0.532514
v -0.260356 0.007143 0.000000
v -0.086785 0.007143 -0.000000
v 0.086785 0.007143 -0.000000
v 0.260356 0.007143 -0.000000
v -0.130178 0.187940 -0.155223
v -0.043393 0.187940 -0.155223
v -0.043393 0.230334 -0.304984
v -0.130107 0.230428 -0.304958
v 0.130178 0.109502 -0.048362
v 0.043393 0.109502 -0.048362
v 0.043393 0.036874 -0.007966
v 0.130178 0.036874 -0.007966
v 0.130178 0.218869 -0.605528
v 0.043393 0.218869 -0.605528
v 0.043393 0.218817 -0.457032
v 0.130178 0.218817 -0.457032
v 0.216963 0.187940 -0.155223
v 0.303749 0.187940 -0.155223
v 0.303749 0.230334 -0.304984
v 0.216963 0.230334 -0.304984
v 0.043393 0.187940 -0.155223
v 0.130178 0.187940 -0.155223
v 0.130178 0.230334 -0.304984
v 0.043393 0.230334 -0.304984
v -0.216609 0.230804 -0.304851
v -0.302897 0.231462 -0.304665
v -0.303749 0.187940 -0.155223
v -0.216964 0.187940 -0.155223
v -0.216964 0.109501 -0.048362
v -0.303749 0.109501 -0.048362
v -0.303749 0.036874 -0.007966
v -0.216964 0.036874 -0.007966
v -0.043393 0.109502 -0.048362
v -0.130178 0.109501 -0.048362
v -0.130178 0.036874 -0.007966
v -0.043393 0.036874 -0.007966
v 0.216964 0.036874 -0.007966
v 0.303749 0.036874 -0.007966
v 0.303749 0.109502 -0.048362
v 0.216964 0.109502 -0.048362
v -0.212706 0.224511 -0.603932
v -0.293530 0.232411 -0.601697
v -0.299491 0.224459 -0.455436
v -0.215189 0.221168 -0.456367
v -0.043393 0.218869 -0.605528
v -0.129327 0.219997 -0.605209
v -0.129823 0.219287 -0.456899
v -0.043393 0.218817 -0.457032
v 0.216963 0.218817 -0.457032
v 0.303749 0.218817 -0.457032
v 0.303749 0.232806 -0.605528
v 0.216963 0.218869 -0.605528
v -0.130178 0.150560 -0.091293
v -0.086785 0.187940 -0.155223
v -0.130160 0.216332 -0.229871
v -0.173571 0.187940 -0.155223
v -0.000000 0.187940 -0.155223
v -0.043393 0.216309 -0.229878
v -0.043393 0.150560 -0.091293
v -0.043393 0.230881 -0.380662
v -0.086768 0.230357 -0.304978
v -0.000000 0.230334 -0.304984
v -0.173393 0.230569 -0.304918
v -0.130001 0.231116 -0.380596
v 0.130178 0.150560 -0.091293
v 0.086785 0.109502 -0.048362
v 0.130178 0.069896 -0.022048
v 0.173571 0.109502 -0.048362
v -0.000000 0.109502 -0.048362
v 0.043393 0.069896 -0.022048
v 0.043393 0.150560 -0.091293
v 0.043393 0.007143 -0.000000
v 0.086785 0.036874 -0.007966
v -0.000000 0.036874 -0.007966
v 0.173571 0.036874 -0.007966
v 0.130178 0.007143 -0.000000
v 0.130178 0.237291 -0.677308
v 0.086785 0.218869 -0.605528
v 0.130178 0.209645 -0.532514
v 0.173571 0.218869 -0.605528
v -0.000000 0.218869 -0.605528
v 0.043393 0.209645 -0.532514
v 0.043393 0.237291 -0.677308
v 0.043393 0.230881 -0.380662
v 0.086785 0.218817 -0.457032
v -0.000000 0.218817 -0.457032
v 0.173571 0.218817 -0.457032
v 0.130178 0.230881 -0.380662
v 0.216963 0.150560 -0.091293
v 0.260356 0.187940 -0.155223
v 0.216963 0.216309 -0.229878
v 0.173571 0.187940 -0.155223
v 0.347142 0.187940 -0.155223
v 0.303749 0.216309 -0.229878
v 0.303749 0.150560 -0.091293
v 0.303749 0.230881 -0.380662
v 0.260356 0.230334 -0.304984
v 0.347142 0.230334 -0.304984
v 0.173571 0.230334 -0.304984
v 0.216963 0.230881 -0.380662
v 0.086785 0.187940 -0.155223
v 0.043393 0.216309 -0.229878
v 0.130178 0.216309 -0.229878
v 0.086785 0.230334 -0.304984
v -0.216076 0.232057 -0.380330
v -0.259771 0.231110 -0.304765
v -0.216875 0.216426 -0.229845
v -0.346006 0.231839 -0.304558
v -0.303536 0.216591 -0.229798
v -0.301620 0.233702 -0.379864
v -0.303749 0.150560 -0.091293
v -0.260356 0.187940 -0.155223
v -0.347142 0.187940 -0.155223
v -0.216964 0.150560 -0.091293
v -0.260356 0.109501 -0.048362
v -0.216964 0.069896 -0.022048
v -0.173571 0.109501 -0.048362
v -0.347142 0.109501 -0.048362
v -0.303749 0.069896 -0.022048
v -0.303749 0.007143 0.000000
v -0.260356 0.036874 -0.007966
v -0.347142 0.036874 -0.007966
v -0.173571 0.036874 -0.007966
v -0.216964 0.007143 -0.000000
v -0.086785 0.109501 -0.048362
v -0.043393 0.069896 -0.022048
v -0.130178 0.069896 -0.022048
v -0.130178 0.007143 -0.000000
v -0.086785 0.036874 -0.007966
v -0.043393 0.007143 -0.000000
v 0.216964 0.007143 -0.000000
v 0.260356 0.036874 -0.007966
v 0.216964 0.069896 -0.022048
v 0.347142 0.036874 -0.007966
v 0.303749 0.069896 -0.022048
v 0.303749 0.007143 -0.000000
v 0.260356 0.109502 -0.048362
v 0.347142 0.109502 -0.048362
v -0.211286 0.244814 -0.675180
v -0.253331 0.228179 -0.602894
v -0.214036 0.213524 -0.531417
v -0.171442 0.221690 -0.604730
v -0.333516 0.236925 -0.600420
v -0.296723 0.218955 -0.529880
v -0.290124 0.255347 -0.672199
v -0.257429 0.222696 -0.455935
v -0.341465 0.226340 -0.454904
v -0.172684 0.219992 -0.456700
v -0.043393 0.237291 -0.677308
v -0.086573 0.219151 -0.605448
v -0.043393 0.209645 -0.532514
v -0.129593 0.210421 -0.532295
v -0.129043 0.238796 -0.676883
v -0.086697 0.218934 -0.456999
v 0.260356 0.218817 -0.457032
v 0.216963 0.209645 -0.532514
v 0.347142 0.218817 -0.457032
v 0.303749 0.213129 -0.532514
v 0.303749 0.265164 -0.677308
v 0.260356 0.222353 -0.605528
v 0.347142 0.246742 -0.605528
v 0.216963 0.237291 -0.677308
vn -0.0000 0.7984 0.6021
vn 0.0001 0.9020 0.4317
vn 0.0001 0.9019 0.4319
vn -0.0000 0.9021 0.4315
vn 0.0008 0.9625 0.2713
vn 0.0004 0.9627 0.2707
vn 0.0014 0.9622 0.2723
vn 0.0001 0.9627 0.2705
vn -0.0000 0.9627 0.2705
vn -0.0000 0.9972 -0.0747
vn 0.0003 0.9954 0.0958
vn -0.0000 0.9954 0.0958
vn 0.0029 0.9973 -0.0738
vn 0.0008 0.9972 -0.0745
vn 0.0013 0.9954 0.0963
vn 0.0114 0.9976 -0.0679
vn 0.0028 0.9952 0.0975
vn 0.0064 0.9974 -0.0718
vn 0.0049 0.9950 0.0998
vn -0.0000 0.6420 0.7667
vn -0.0000 0.4748 0.8801
vn -0.0000 0.2588 0.9659
vn -0.0000 0.3264 0.9452
vn -0.0000 0.9686 0.2486
vn -0.0000 0.9823 0.1873
vn -0.0000 1.0000 0.0024
vn -0.0000 0.9904 -0.1384
vn 0.0162 0.9980 -0.0618
vn 0.0197 0.9984 -0.0538
vn 0.0070 0.9946 0.1035
vn 0.0020 0.9618 0.2739
vn 0.0084 0.9941 0.1081
vn 0.0024 0.9612 0.2759
vn 0.0195 0.9991 -0.0365
vn 0.0093 0.9935 0.1135
vn 0.0218 0.9988 -0.0446
vn 0.0026 0.9605 0.2782
vn 0.0078 0.9930 0.1181
vn 0.0019 0.9600 0.2802
vn -0.0000 0.9010 0.4338
vn 0.0002 0.9015 0.4328
vn 0.0002 0.9012 0.4333
vn 0.0001 0.9017 0.4323
vn 0.1072 0.9569 0.2698
vn 0.0571 0.9779 0.2011
vn 0.0736 0.9632 0.2586
vn 0.1319 0.9492 0.2858
vn 0.0828 0.9733 0.2141
vn 0.0548 0.9981 0.0266
vn 0.1016 0.9676 0.2312
vn 0.0672 0.9969 0.0418
vn 0.0379 0.9992 0.0150
vn 0.1455 0.9365 0.3192
vn 0.1130 0.9614 0.2511
vn 0.1470 0.9409 0.3052
vn 0.0748 0.9954 0.0595
vn 0.1101 0.9587 0.2621
vn 0.0715 0.9953 0.0655
vn 0.0398 0.9954 -0.0872
vn 0.0428 0.9945 -0.0952
vn 0.0384 0.9933 -0.1086
vn 0.0314 0.9923 -0.1201
vn 0.0219 0.9914 -0.1288
vn 0.0045 0.9686 0.2486
vn 0.0179 0.9682 0.2494
vn 0.0036 0.9822 0.1876
vn 0.0024 1.0000 0.0026
vn 0.0140 0.9819 0.1891
vn 0.0094 0.9999 0.0040
vn 0.0317 0.9807 0.1931
vn 0.0407 0.9668 0.2523
vn 0.0212 0.9997 0.0078
vn 0.0123 0.9909 -0.1343
vn 0.0055 0.9905 -0.1371
vn 0.0014 0.9904 -0.1382
vn -0.0050 0.9919 -0.1270
vn -0.0434 0.9989 0.0178
vn -0.0016 0.9906 -0.1365
vn -0.0100 0.9999 0.0024
vn -0.0000 0.9957 -0.0928
vn -0.1035 0.9870 0.1228
vn -0.0067 0.9941 -0.1080
vn -0.0797 0.9943 0.0705
vn -0.4118 0.8082 0.4210
vn -0.3213 0.8587 0.3992
vn -0.4750 0.7395 0.4770
vn -0.2560 0.9115 0.3220
vn -0.2545 0.9108 0.3251
vn -0.1443 0.9618 0.2326
vn -0.0645 0.9627 0.2626
vn -0.0341 0.9807 0.1926
vt 0.574902 0.717733
vt 0.611263 0.663300
vt 0.611263 0.717733
vt 0.611263 0.608867
vt 0.574902 0.663300
vt 0.574902 0.608867
vt 0.654678 0.663300
vt 0.654678 0.608867
vt 0.654678 0.717733
vt 0.611263 0.500000
vt 0.574902 0.554433
vt 0.574902 0.500000
vt 0.654678 0.554433
vt 0.654678 0.500000
vt 0.611263 0.554433
vt 0.753264 0.500000
vt 0.702795 0.554433
vt 0.702795 0.500000
vt 0.753264 0.608867
vt 0.753264 0.554433
vt 0.702795 0.608867
vt 0.753264 0.717733
vt 0.702795 0.663300
vt 0.753264 0.663300
vt 0.702795 0.717733
vt 0.574902 0.336700
vt 0.547947 0.282267
vt 0.574902 0.282267
vt 0.547947 0.391133
vt 0.574902 0.391133
vt 0.528046 0.391133
vt 0.547947 0.336700
vt 0.528046 0.282267
vt 0.528046 0.336700
vt 0.547947 0.500000
vt 0.574902 0.445567
vt 0.528046 0.445567
vt 0.528046 0.500000
vt 0.500000 0.500000
vt 0.512847 0.445567
vt 0.512847 0.500000
vt 0.512847 0.391133
vt 0.500000 0.445567
vt 0.500000 0.391133
vt 0.500000 0.282267
vt 0.512847 0.336700
vt 0.500000 0.336700
vt 0.512847 0.282267
vt 0.955139 0.336700
vt 0.904670 0.282267
vt 0.955139 0.282267
vt 0.955139 0.391133
vt 0.904670 0.336700
vt 0.854201 0.336700
vt 0.904670 0.391133
vt 0.854201 0.391133
vt 0.854201 0.282267
vt 0.904670 0.500000
vt 0.955139 0.445567
vt 0.955139 0.500000
vt 0.854201 0.445567
vt 0.854201 0.500000
vt 0.753264 0.445567
vt 0.803733 0.500000
vt 0.803733 0.391133
vt 0.753264 0.391133
vt 0.803733 0.445567
vt 0.803733 0.282267
vt 0.753264 0.336700
vt 0.753264 0.282267
vt 0.803733 0.336700
vt 0.574902 0.227833
vt 0.611263 0.282267
vt 0.611263 0.173400
vt 0.574902 0.173400
vt 0.654678 0.227833
vt 0.654678 0.173400
vt 0.654678 0.282267
vt 0.574902 0.064533
vt 0.611263 0.118967
vt 0.574902 0.118967
vt 0.654678 0.118967
vt 0.611263 0.064533
vt 0.654678 0.064533
vt 0.753264 0.064533
vt 0.702795 0.118967
vt 0.702795 0.064533
vt 0.702795 0.173400
vt 0.753264 0.118967
vt 0.753264 0.173400
vt 0.702795 0.282267
vt 0.753264 0.227833
vt 0.702795 0.227833
vt 0.611263 0.445567
vt 0.654678 0.391133
vt 0.611263 0.391133
vt 0.654678 0.445567
vt 0.611263 0.336700
vt 0.654678 0.336700
vt 0.702795 0.336700
vt 0.702795 0.391133
vt 0.702795 0.445567
vt 0.753264 0.772167
vt 0.753264 0.826600
vt 0.702795 0.772167
vt 0.654678 0.772167
vt 0.702795 0.826600
vt 0.654678 0.826600
vt 0.753264 0.935467
vt 0.702795 0.881033
vt 0.753264 0.881033
vt 0.654678 0.881033
vt 0.702795 0.935467
vt 0.654678 0.935467
vt 0.574902 0.881033
vt 0.611263 0.935467
vt 0.574902 0.935467
vt 0.611263 0.826600
vt 0.574902 0.826600
vt 0.611263 0.881033
vt 0.574902 0.772167
vt 0.611263 0.772167
vt 0.547947 0.717733
vt 0.547947 0.772167
vt 0.528046 0.772167
vt 0.547947 0.826600
vt 0.528046 0.826600
vt 0.528046 0.717733
vt 0.547947 0.935467
vt 0.528046 0.881033
vt 0.528046 0.935467
vt 0.547947 0.881033
vt 0.500000 0.881033
vt 0.512847 0.935467
vt 0.500000 0.935467
vt 0.512847 0.826600
vt 0.500000 0.826600
vt 0.512847 0.881033
vt 0.500000 0.717733
vt 0.512847 0.772167
vt 0.500000 0.772167
vt 0.512847 0.717733
vt 0.547947 0.608867
vt 0.528046 0.608867
vt 0.547947 0.554433
vt 0.528046 0.554433
vt 0.528046 0.663300
vt 0.500000 0.663300
vt 0.512847 0.608867
vt 0.500000 0.608867
vt 0.500000 0.554433
vt 0.500000 0.227833
vt 0.500000 0.173400
vt 0.512847 0.227833
vt 0.528046 0.227833
vt 0.512847 0.173400
vt 0.528046 0.173400
vt 0.500000 0.064533
vt 0.512847 0.118967
vt 0.500000 0.118967
vt 0.528046 0.118967
vt 0.512847 0.064533
vt 0.528046 0.064533
vt 0.547947 0.118967
vt 0.547947 0.064533
vt 0.547947 0.173400
vt 0.547947 0.227833
vt 0.955139 0.772167
vt 0.904670 0.717733
vt 0.955139 0.717733
vt 0.955139 0.826600
vt 0.904670 0.772167
vt 0.854201 0.772167
vt 0.904670 0.826600
vt 0.854201 0.826600
vt 0.854201 0.717733
vt 0.955139 0.935467
vt 0.904670 0.881033
vt 0.955139 0.881033
vt 0.854201 0.881033
vt 0.904670 0.935467
vt 0.854201 0.935467
vt 0.803733 0.935467
vt 0.803733 0.881033
vt 0.803733 0.826600
vt 0.803733 0.772167
vt 0.803733 0.717733
vt 0.955139 0.554433
vt 0.955139 0.608867
vt 0.904670 0.554433
vt 0.854201 0.554433
vt 0.904670 0.608867
vt 0.854201 0.608867
vt 0.904670 0.663300
vt 0.955139 0.663300
vt 0.854201 0.663300
vt 0.803733 0.663300
vt 0.803733 0.608867
vt 0.803733 0.554433
vt 0.803733 0.173400
vt 0.854201 0.173400
vt 0.803733 0.227833
vt 0.854201 0.227833
vt 0.803733 0.064533
vt 0.854201 0.064533
vt 0.803733 0.118967
vt 0.854201 0.118967
vt 0.955139 0.118967
vt 0.904670 0.064533
vt 0.955139 0.064533
vt 0.955139 0.173400
vt 0.904670 0.118967
vt 0.904670 0.173400
vt 0.955139 0.227833
vt 0.904670 0.227833
vt 0.547947 0.445567
vt 0.904670 0.445567
vt 0.611263 0.227833
vt 0.547947 0.663300
vt 0.512847 0.663300
vt 0.512847 0.554433
s 1
g off
g open_book.001_open_book_pages
usemtl open_book_pages
f 7/1/1 64/2/2 115/3/3
f 113/4/4 112/5/1 42/6/1
f 114/7/5 113/4/4 21/8/6
f 53/9/7 64/2/2 114/7/5
f 116/10/4 118/11/1 8/12/1
f 117/13/8 116/10/4 52/14/9
f 21/8/6 65/15/4 117/13/8
f 118/11/1 113/4/4 42/6/1
f 14/16/10 66/17/11 121/18/12
f 49/19/13 66/17/11 119/20/14
f 117/13/8 120/21/15 21/8/6
f 121/18/12 117/13/8 52/14/9
f 15/22/16 67/23/17 123/24/18
f 114/7/5 122/25/19 53/9/7
f 21/8/6 67/23/17 114/7/5
f 123/24/18 120/21/15 49/19/13
f 124/26/1 127/27/20 9/28/1
f 125/29/20 124/26/1 43/30/1
f 22/31/21 68/32/20 125/29/20
f 56/33/21 68/32/20 126/34/21
f 128/35/20 130/36/1 8/12/1
f 129/37/21 128/35/20 55/38/21
f 125/29/20 129/37/21 22/31/21
f 130/36/1 125/29/20 43/30/1
f 19/39/22 70/40/23 133/41/23
f 132/42/23 131/43/22 62/44/22
f 129/37/21 132/42/23 22/31/21
f 133/41/23 129/37/21 55/38/21
f 20/45/22 71/46/23 135/47/22
f 56/33/21 71/46/23 134/48/23
f 132/42/23 126/34/21 22/31/21
f 135/47/22 132/42/23 62/44/22
f 136/49/24 139/50/25 10/51/24
f 45/52/24 72/53/25 136/49/24
f 138/54/26 137/55/25 23/56/26
f 139/50/25 138/54/26 59/57/26
f 140/58/25 142/59/24 11/60/24
f 141/61/26 140/58/25 58/62/26
f 137/55/25 141/61/26 23/56/26
f 142/59/24 137/55/25 45/52/24
f 143/63/10 145/64/27 14/16/10
f 144/65/27 143/63/10 48/66/10
f 23/56/26 74/67/27 144/65/27
f 58/62/26 74/67/27 141/61/26
f 146/68/27 147/69/10 13/70/10
f 138/54/26 146/68/27 59/57/26
f 144/65/27 138/54/26 23/56/26
f 48/66/10 75/71/27 144/65/27
f 148/72/1 151/73/4 9/28/1
f 149/74/4 148/72/1 44/75/1
f 150/76/9 149/74/4 24/77/9
f 151/73/4 150/76/9 51/78/9
f 2/79/1 77/80/4 154/81/1
f 153/82/9 152/83/4 34/84/9
f 149/74/4 153/82/9 24/77/9
f 154/81/1 149/74/4 44/75/1
f 5/85/10 78/86/12 157/87/12
f 156/88/12 155/89/10 41/90/10
f 153/82/9 156/88/12 24/77/9
f 157/87/12 153/82/9 34/84/9
f 158/91/12 159/92/10 13/70/10
f 51/78/9 79/93/12 158/91/12
f 156/88/12 150/76/9 24/77/9
f 159/92/10 156/88/12 41/90/10
f 130/36/1 116/10/4 8/12/1
f 43/30/1 80/94/4 130/36/1
f 25/95/9 80/94/4 160/96/4
f 116/10/4 161/97/9 52/14/9
f 9/28/1 81/98/4 124/26/1
f 162/99/9 151/73/4 51/78/9
f 160/96/4 162/99/9 25/95/9
f 124/26/1 160/96/4 43/30/1
f 13/70/10 82/100/12 158/91/12
f 163/101/12 147/69/10 48/66/10
f 25/95/9 82/100/12 163/101/12
f 158/91/12 162/99/9 51/78/9
f 14/16/10 83/102/12 143/63/10
f 161/97/9 121/18/12 52/14/9
f 163/101/12 161/97/9 25/95/9
f 143/63/10 163/101/12 48/66/10
f 164/103/28 122/25/19 15/22/16
f 50/104/29 84/105/30 164/103/28
f 166/106/31 165/107/32 26/108/33
f 53/9/7 84/105/30 166/106/31
f 6/109/34 85/110/35 169/111/36
f 168/112/37 167/113/38 40/114/39
f 26/108/33 85/110/35 168/112/37
f 169/111/36 165/107/32 50/104/29
f 170/115/1 172/116/40 1/117/1
f 171/118/41 170/115/1 33/119/1
f 168/112/37 171/118/41 26/108/33
f 40/114/39 86/120/42 168/112/37
f 115/3/3 173/121/1 7/1/1
f 166/106/31 115/3/3 53/9/7
f 26/108/33 87/122/43 166/106/31
f 33/119/1 87/122/43 171/118/41
f 173/121/1 176/123/20 7/1/1
f 33/119/1 88/124/20 173/121/1
f 175/125/21 174/126/20 27/127/21
f 176/123/20 175/125/21 54/128/21
f 177/129/20 170/115/1 1/117/1
f 178/130/21 177/129/20 37/131/21
f 27/127/21 89/132/20 178/130/21
f 33/119/1 89/132/20 174/126/20
f 179/133/22 181/134/23 16/135/22
f 180/136/23 179/133/22 60/137/22
f 178/130/21 180/136/23 27/127/21
f 37/131/21 90/138/23 178/130/21
f 18/139/22 91/140/23 183/141/22
f 54/128/21 91/140/23 182/142/23
f 27/127/21 91/140/23 175/125/21
f 183/141/22 180/136/23 60/137/22
f 118/11/1 128/35/20 8/12/1
f 184/143/20 118/11/1 42/6/1
f 28/144/21 92/145/20 184/143/20
f 128/35/20 185/146/21 55/38/21
f 176/123/20 112/5/1 7/1/1
f 186/147/21 176/123/20 54/128/21
f 184/143/20 186/147/21 28/144/21
f 112/5/1 184/143/20 42/6/1
f 187/148/22 182/142/23 18/139/22
f 188/149/23 187/148/22 61/150/22
f 186/147/21 188/149/23 28/144/21
f 182/142/23 186/147/21 54/128/21
f 133/41/23 189/151/22 19/39/22
f 185/146/21 133/41/23 55/38/21
f 188/149/23 185/146/21 28/144/21
f 189/151/22 188/149/23 61/150/22
f 190/152/22 134/48/23 20/45/22
f 63/153/22 96/154/23 190/152/22
f 192/155/21 191/156/23 29/157/21
f 134/48/23 192/155/21 56/33/21
f 17/158/22 97/159/23 195/160/22
f 194/161/21 193/162/23 38/163/21
f 29/157/21 97/159/23 194/161/21
f 195/160/22 191/156/23 63/153/22
f 2/79/1 98/164/20 197/165/20
f 196/166/20 154/81/1 44/75/1
f 194/161/21 196/166/20 29/157/21
f 38/163/21 98/164/20 194/161/21
f 9/28/1 99/167/20 148/72/1
f 192/155/21 127/27/20 56/33/21
f 29/157/21 99/167/20 192/155/21
f 44/75/1 99/167/20 196/166/20
f 198/168/44 201/169/45 12/170/46
f 47/171/47 100/172/48 198/168/44
f 200/173/49 199/174/50 30/175/51
f 57/176/52 100/172/48 200/173/49
f 4/177/53 101/178/54 204/179/55
f 203/180/56 202/181/57 36/182/58
f 30/175/51 101/178/54 203/180/56
f 204/179/55 199/174/50 47/171/47
f 169/111/36 206/183/59 6/109/34
f 50/104/29 102/184/60 169/111/36
f 203/180/56 205/185/61 30/175/51
f 36/182/58 102/184/60 203/180/56
f 15/22/16 103/186/62 164/103/28
f 200/173/49 207/187/63 57/176/52
f 30/175/51 103/186/62 200/173/49
f 164/103/28 205/185/61 50/104/29
f 208/188/64 140/58/25 11/60/24
f 46/189/65 104/190/66 208/188/64
f 210/191/67 209/192/68 31/193/69
f 140/58/25 210/191/67 58/62/26
f 12/170/46 105/194/70 212/195/71
f 211/196/72 201/169/45 57/176/52
f 31/193/69 105/194/70 211/196/72
f 212/195/71 209/192/68 46/189/65
f 123/24/18 207/187/63 15/22/16
f 49/19/13 106/197/73 123/24/18
f 211/196/72 213/198/74 31/193/69
f 57/176/52 106/197/73 211/196/72
f 145/64/27 119/20/14 14/16/10
f 210/191/67 145/64/27 58/62/26
f 31/193/69 107/199/75 210/191/67
f 119/20/14 213/198/74 49/19/13
f 159/92/10 146/68/27 13/70/10
f 214/200/76 159/92/10 41/90/10
f 32/201/77 108/202/78 214/200/76
f 146/68/27 215/203/79 59/57/26
f 216/204/80 155/89/10 5/85/10
f 39/205/81 109/206/82 216/204/80
f 214/200/76 217/207/83 32/201/77
f 155/89/10 214/200/76 41/90/10
f 218/208/84 220/209/85 3/210/86
f 35/211/87 110/212/88 218/208/84
f 217/207/83 219/213/89 32/201/77
f 39/205/81 110/212/88 217/207/83
f 139/50/25 221/214/90 10/51/24
f 59/57/26 111/215/91 139/50/25
f 32/201/77 111/215/91 215/203/79
f 221/214/90 219/213/89 35/211/87
f 7/1/1 112/5/1 64/2/2
f 113/4/4 64/2/2 112/5/1
f 114/7/5 64/2/2 113/4/4
f 53/9/7 115/3/3 64/2/2
f 116/10/4 65/15/4 118/11/1
f 117/13/8 65/15/4 116/10/4
f 21/8/6 113/4/4 65/15/4
f 118/11/1 65/15/4 113/4/4
f 14/16/10 119/20/14 66/17/11
f 49/19/13 120/21/15 66/17/11
f 117/13/8 66/17/11 120/21/15
f 121/18/12 66/17/11 117/13/8
f 15/22/16 122/25/19 67/23/17
f 114/7/5 67/23/17 122/25/19
f 21/8/6 120/21/15 67/23/17
f 123/24/18 67/23/17 120/21/15
f 124/26/1 68/32/20 127/27/20
f 125/29/20 68/32/20 124/26/1
f 22/31/21 126/34/21 68/32/20
f 56/33/21 127/27/20 68/32/20
f 128/35/20 69/216/20 130/36/1
f 129/37/21 69/216/20 128/35/20
f 125/29/20 69/216/20 129/37/21
f 130/36/1 69/216/20 125/29/20
f 19/39/22 131/43/22 70/40/23
f 132/42/23 70/40/23 131/43/22
f 129/37/21 70/40/23 132/42/23
f 133/41/23 70/40/23 129/37/21
f 20/45/22 134/48/23 71/46/23
f 56/33/21 126/34/21 71/46/23
f 132/42/23 71/46/23 126/34/21
f 135/47/22 71/46/23 132/42/23
f 136/49/24 72/53/25 139/50/25
f 45/52/24 137/55/25 72/53/25
f 138/54/26 72/53/25 137/55/25
f 139/50/25 72/53/25 138/54/26
f 140/58/25 73/217/25 142/59/24
f 141/61/26 73/217/25 140/58/25
f 137/55/25 73/217/25 141/61/26
f 142/59/24 73/217/25 137/55/25
f 143/63/10 74/67/27 145/64/27
f 144/65/27 74/67/27 143/63/10
f 23/56/26 141/61/26 74/67/27
f 58/62/26 145/64/27 74/67/27
f 146/68/27 75/71/27 147/69/10
f 138/54/26 75/71/27 146/68/27
f 144/65/27 75/71/27 138/54/26
f 48/66/10 147/69/10 75/71/27
f 148/72/1 76/218/4 151/73/4
f 149/74/4 76/218/4 148/72/1
f 150/76/9 76/218/4 149/74/4
f 151/73/4 76/218/4 150/76/9
f 2/79/1 152/83/4 77/80/4
f 153/82/9 77/80/4 152/83/4
f 149/74/4 77/80/4 153/82/9
f 154/81/1 77/80/4 149/74/4
f 5/85/10 155/89/10 78/86/12
f 156/88/12 78/86/12 155/89/10
f 153/82/9 78/86/12 156/88/12
f 157/87/12 78/86/12 153/82/9
f 158/91/12 79/93/12 159/92/10
f 51/78/9 150/76/9 79/93/12
f 156/88/12 79/93/12 150/76/9
f 159/92/10 79/93/12 156/88/12
f 130/36/1 80/94/4 116/10/4
f 43/30/1 160/96/4 80/94/4
f 25/95/9 161/97/9 80/94/4
f 116/10/4 80/94/4 161/97/9
f 9/28/1 151/73/4 81/98/4
f 162/99/9 81/98/4 151/73/4
f 160/96/4 81/98/4 162/99/9
f 124/26/1 81/98/4 160/96/4
f 13/70/10 147/69/10 82/100/12
f 163/101/12 82/100/12 147/69/10
f 25/95/9 162/99/9 82/100/12
f 158/91/12 82/100/12 162/99/9
f 14/16/10 121/18/12 83/102/12
f 161/97/9 83/102/12 121/18/12
f 163/101/12 83/102/12 161/97/9
f 143/63/10 83/102/12 163/101/12
f 164/103/28 84/105/30 122/25/19
f 50/104/29 165/107/32 84/105/30
f 166/106/31 84/105/30 165/107/32
f 53/9/7 122/25/19 84/105/30
f 6/109/34 167/113/38 85/110/35
f 168/112/37 85/110/35 167/113/38
f 26/108/33 165/107/32 85/110/35
f 169/111/36 85/110/35 165/107/32
f 170/115/1 86/120/42 172/116/40
f 171/118/41 86/120/42 170/115/1
f 168/112/37 86/120/42 171/118/41
f 40/114/39 172/116/40 86/120/42
f 115/3/3 87/122/43 173/121/1
f 166/106/31 87/122/43 115/3/3
f 26/108/33 171/118/41 87/122/43
f 33/119/1 173/121/1 87/122/43
f 173/121/1 88/124/20 176/123/20
f 33/119/1 174/126/20 88/124/20
f 175/125/21 88/124/20 174/126/20
f 176/123/20 88/124/20 175/125/21
f 177/129/20 89/132/20 170/115/1
f 178/130/21 89/132/20 177/129/20
f 27/127/21 174/126/20 89/132/20
f 33/119/1 170/115/1 89/132/20
f 179/133/22 90/138/23 181/134/23
f 180/136/23 90/138/23 179/133/22
f 178/130/21 90/138/23 180/136/23
f 37/131/21 181/134/23 90/138/23
f 18/139/22 182/142/23 91/140/23
f 54/128/21 175/125/21 91/140/23
f 27/127/21 180/136/23 91/140/23
f 183/141/22 91/140/23 180/136/23
f 118/11/1 92/145/20 128/35/20
f 184/143/20 92/145/20 118/11/1
f 28/144/21 185/146/21 92/145/20
f 128/35/20 92/145/20 185/146/21
f 176/123/20 93/219/20 112/5/1
f 186/147/21 93/219/20 176/123/20
f 184/143/20 93/219/20 186/147/21
f 112/5/1 93/219/20 184/143/20
f 187/148/22 94/220/23 182/142/23
f 188/149/23 94/220/23 187/148/22
f 186/147/21 94/220/23 188/149/23
f 182/142/23 94/220/23 186/147/21
f 133/41/23 95/221/23 189/151/22
f 185/146/21 95/221/23 133/41/23
f 188/149/23 95/221/23 185/146/21
f 189/151/22 95/221/23 188/149/23
f 190/152/22 96/154/23 134/48/23
f 63/153/22 191/156/23 96/154/23
f 192/155/21 96/154/23 191/156/23
f 134/48/23 96/154/23 192/155/21
f 17/158/22 193/162/23 97/159/23
f 194/161/21 97/159/23 193/162/23
f 29/157/21 191/156/23 97/159/23
f 195/160/22 97/159/23 191/156/23
f 2/79/1 154/81/1 98/164/20
f 196/166/20 98/164/20 154/81/1
f 194/161/21 98/164/20 196/166/20
f 38/163/21 197/165/20 98/164/20
f 9/28/1 127/27/20 99/167/20
f 192/155/21 99/167/20 127/27/20
f 29/157/21 196/166/20 99/167/20
f 44/75/1 148/72/1 99/167/20
f 198/168/44 100/172/48 201/169/45
f 47/171/47 199/174/50 100/172/48
f 200/173/49 100/172/48 199/174/50
f 57/176/52 201/169/45 100/172/48
f 4/177/53 202/181/57 101/178/54
f 203/180/56 101/178/54 202/181/57
f 30/175/51 199/174/50 101/178/54
f 204/179/55 101/178/54 199/174/50
f 169/111/36 102/184/60 206/183/59
f 50/104/29 205/185/61 102/184/60
f 203/180/56 102/184/60 205/185/61
f 36/182/58 206/183/59 102/184/60
f 15/22/16 207/187/63 103/186/62
f 200/173/49 103/186/62 207/187/63
f 30/175/51 205/185/61 103/186/62
f 164/103/28 103/186/62 205/185/61
f 208/188/64 104/190/66 140/58/25
f 46/189/65 209/192/68 104/190/66
f 210/191/67 104/190/66 209/192/68
f 140/58/25 104/190/66 210/191/67
f 12/170/46 201/169/45 105/194/70
f 211/196/72 105/194/70 201/169/45
f 31/193/69 209/192/68 105/194/70
f 212/195/71 105/194/70 209/192/68
f 123/24/18 106/197/73 207/187/63
f 49/19/13 213/198/74 106/197/73
f 211/196/72 106/197/73 213/198/74
f 57/176/52 207/187/63 106/197/73
f 145/64/27 107/199/75 119/20/14
f 210/191/67 107/199/75 145/64/27
f 31/193/69 213/198/74 107/199/75
f 119/20/14 107/199/75 213/198/74
f 159/92/10 108/202/78 146/68/27
f 214/200/76 108/202/78 159/92/10
f 32/201/77 215/203/79 108/202/78
f 146/68/27 108/202/78 215/203/79
f 216/204/80 109/206/82 155/89/10
f 39/205/81 217/207/83 109/206/82
f 214/200/76 109/206/82 217/207/83
f 155/89/10 109/206/82 214/200/76
f 218/208/84 110/212/88 220/209/85
f 35/211/87 219/213/89 110/212/88
f 217/207/83 110/212/88 219/213/89
f 39/205/81 220/209/85 110/212/88
f 139/50/25 111/215/91 221/214/90
f 59/57/26 215/203/79 111/215/91
f 32/201/77 219/213/89 111/215/91
f 221/214/90 111/215/91 219/213/89
